<svg width="432" height="432" viewBox="0 0 432 432" fill="none" xmlns="http://www.w3.org/2000/svg">
<g clip-path="url(#clip0_1_2)">
<rect width="432" height="432" fill="white"/>
<path d="M223.452 349.784L223.438 349.842V349.902C223.438 351.606 222.229 353.246 220.064 354.487C217.913 355.721 214.907 356.5 211.56 356.5C208.214 356.5 205.208 355.721 203.057 354.487C200.892 353.246 199.683 351.606 199.683 349.902V349.788L199.633 349.685C199.488 349.385 199.489 349.22 199.51 349.14C199.527 349.075 199.578 348.985 199.763 348.884C199.956 348.779 200.251 348.689 200.665 348.623C201.073 348.558 201.567 348.522 202.137 348.508C203.28 348.479 204.681 348.537 206.242 348.603L206.343 348.608C207.87 348.673 209.537 348.744 211.221 348.744C213.295 348.744 215.174 348.67 216.807 348.603L216.929 348.598C218.516 348.534 219.851 348.479 220.92 348.508C222.041 348.538 222.763 348.659 223.159 348.881C223.338 348.981 223.421 349.086 223.461 349.193C223.505 349.308 223.524 349.491 223.452 349.784Z" fill="#580606"/>
<path d="M223.452 349.784L223.438 349.842V349.902C223.438 351.606 222.229 353.246 220.064 354.487C217.913 355.721 214.907 356.5 211.56 356.5C208.214 356.5 205.208 355.721 203.057 354.487C200.892 353.246 199.683 351.606 199.683 349.902V349.788L199.633 349.685C199.488 349.385 199.489 349.22 199.51 349.14C199.527 349.075 199.578 348.985 199.763 348.884C199.956 348.779 200.251 348.689 200.665 348.623C201.073 348.558 201.567 348.522 202.137 348.508C203.28 348.479 204.681 348.537 206.242 348.603L206.343 348.608C207.87 348.673 209.537 348.744 211.221 348.744C213.295 348.744 215.174 348.67 216.807 348.603L216.929 348.598C218.516 348.534 219.851 348.479 220.92 348.508C222.041 348.538 222.763 348.659 223.159 348.881C223.338 348.981 223.421 349.086 223.461 349.193C223.505 349.308 223.524 349.491 223.452 349.784Z" stroke="#FF3434" style="mix-blend-mode:exclusion"/>
<path d="M88.1564 156.86L64 121.098L96.2085 133.43L114.326 137.13L139.489 138.363L168.678 130.964L183.775 149.461L190.821 188.922L209.945 306.073L214.977 278.943L223.029 227.15L227.055 188.922L234.101 149.461L244.166 130.964L278.388 138.363L311.225 137.13L342.805 133.43L373 121.098L340.792 156.86L301.537 164.259L285.433 166.725L254.231 200.021L244.166 229.617L231.081 267.845L222.023 299.907V302.373L229.068 298.674H244.166H296.505C296.505 298.674 322.674 309.772 327.707 314.705C332.739 319.637 362.935 348 362.935 348H212.964H207.932H71.0456L95.202 314.705L129.524 298.674H182.769C195.853 298.674 198.873 302.373 198.873 302.373V298.674L188.808 267.845L175.723 229.617L161.632 200.021L133.45 166.725L133.935 167.439L88.1564 156.86Z" fill="#A31D1D"/>
<path d="M193.84 149.461L208.938 110L225.042 149.461L209.945 290.041L193.84 149.461Z" fill="#A31D1D"/>
<path d="M129.524 298.674C129.524 298.674 169.684 298.674 182.769 298.674C195.853 298.674 198.873 302.373 198.873 302.373V298.674L188.808 267.845L175.723 229.617L161.632 200.021L133.45 166.725L133.935 167.439L88.1564 156.86L64 121.098L96.2085 133.43L114.326 137.13L139.489 138.363L168.678 130.964L183.775 149.461L190.821 188.922L209.945 306.073L214.977 278.943L223.029 227.15L227.055 188.922L234.101 149.461L244.166 130.964L278.388 138.363L311.225 137.13L342.805 133.43L373 121.098L340.792 156.86L301.537 164.259L285.433 166.725L254.231 200.021L244.166 229.617L231.081 267.845L222.023 299.907V302.373L229.068 298.674C229.068 298.674 221.016 298.674 244.166 298.674C267.316 298.674 296.505 298.674 296.505 298.674M129.524 298.674L110.3 322.104C111.306 336.902 170.691 322.104 170.691 322.104C170.691 322.104 206.925 317.171 207.932 348M129.524 298.674L95.202 314.705L71.0456 348H212.964M212.964 348H362.935C362.935 348 332.739 319.637 327.707 314.705C322.674 309.772 296.505 298.674 296.505 298.674M212.964 348C212.292 317.129 246.576 319.768 257.251 322.104C285.433 328.269 315.629 334.435 315.629 322.104L296.505 298.674M208.938 110L193.84 149.461L209.945 290.041L225.042 149.461L208.938 110Z" stroke="url(#paint0_linear_1_2)" style="mix-blend-mode:color-dodge"/>
<path d="M45 116.842L56 139.105L41 149L25 118.079L31 102L35.5 117.461L45 116.842Z" fill="#621E1F" style="mix-blend-mode:hard-light"/>
<path d="M407 118.079L392 149L376 139.105L383 116.842L395.584 117.88L403 102L407 118.079Z" fill="#621E1F" style="mix-blend-mode:hard-light"/>
<path d="M31 102L26 118.079L35.5 117.461M31 102L25 118.079L41 149L56 139.105L45 116.842L35.5 117.461M31 102L35.5 117.461M407 118.079L392 149L376 139.105L383 116.842L398 118.079L395.584 117.88M407 118.079L403 102L395.584 117.88M407 118.079L395.584 117.88" stroke="#64692C" stroke-width="0.6" style="mix-blend-mode:hard-light"/>
<path d="M164.399 108.69C164.869 117.586 160.193 125.205 153.955 125.709C147.717 126.212 142.279 119.409 141.809 110.514C141.339 101.618 146.014 93.9982 152.252 93.4946C158.49 92.9911 163.928 99.7943 164.399 108.69Z" fill="#A31D1D"/>
<path d="M164.174 108.708C164.407 113.115 163.365 117.197 161.502 120.232C159.639 123.268 156.97 125.24 153.943 125.484C150.917 125.729 148.063 124.203 145.896 121.492C143.73 118.782 142.266 114.903 142.033 110.495C141.8 106.088 142.843 102.007 144.705 98.9714C146.568 95.9354 149.238 93.9636 152.264 93.7193C155.29 93.475 158.145 95.0009 160.312 97.7116C162.478 100.422 163.941 104.301 164.174 108.708Z" stroke="url(#paint1_linear_1_2)" stroke-opacity="0.8" stroke-width="0.45" style="mix-blend-mode:color-dodge"/>
<path d="M271.819 114.046C269.154 122.331 262.285 126.734 256.476 123.881C250.666 121.029 248.117 112 250.781 103.716C253.446 95.4314 260.315 91.028 266.124 93.8806C271.934 96.7331 274.483 105.762 271.819 114.046Z" fill="#A31D1D"/>
<path d="M271.617 113.947C270.298 118.048 267.941 121.179 265.206 122.933C262.471 124.686 259.371 125.055 256.545 123.667C253.718 122.28 251.669 119.382 250.654 115.787C249.639 112.193 249.664 107.916 250.983 103.815C252.302 99.7143 254.659 96.5825 257.394 94.8292C260.129 93.0759 263.229 92.707 266.055 94.0947C268.882 95.4825 270.931 98.3798 271.946 101.975C272.961 105.569 272.936 109.846 271.617 113.947Z" stroke="url(#paint2_linear_1_2)" stroke-opacity="0.15" stroke-width="0.45" style="mix-blend-mode:plus-darker"/>
<path d="M271.819 114.046C269.154 122.331 262.285 126.734 256.476 123.881C250.666 121.029 248.117 112 250.781 103.716C253.446 95.4314 260.315 91.028 266.124 93.8806C271.934 96.7331 274.483 105.762 271.819 114.046Z" fill="#A31D1D"/>
<path d="M271.617 113.947C270.298 118.048 267.941 121.179 265.206 122.933C262.471 124.686 259.371 125.055 256.545 123.667C253.718 122.28 251.669 119.382 250.654 115.787C249.639 112.193 249.664 107.916 250.983 103.815C252.302 99.7143 254.659 96.5825 257.394 94.8292C260.129 93.0759 263.229 92.707 266.055 94.0947C268.882 95.4825 270.931 98.3798 271.946 101.975C272.961 105.569 272.936 109.846 271.617 113.947Z" stroke="url(#paint3_linear_1_2)" stroke-opacity="0.8" stroke-width="0.45" style="mix-blend-mode:color-dodge"/>
<path d="M111 330C113.937 349.286 203.042 310.714 205 348M112.958 339C119.812 355.714 202.062 324.857 200.104 348M158 336.429C168.771 336.429 194.229 331.286 199.125 340.286" stroke="#FEF9E1" stroke-opacity="0.5" stroke-width="0.3"/>
<path d="M202 56.0408C203 52.2449 205 41.8694 205 40.8571L207 32L209 42.1224L212 56.0408L216 61.102L225 63.6327L217 67.4286L214 72.4898L211 81.3469L208 94L204 80.0816L201 72.4898L198 67.4286L190 63.6327L198 61.102L202 56.0408Z" fill="#A31D1D"/>
<path d="M202 56.0408C203 52.2449 205 41.8694 205 40.8571L207 32L209 42.1224L212 56.0408L216 61.102L225 63.6327L217 67.4286L214 72.4898L211 81.3469L208 94L204 80.0816L201 72.4898L198 67.4286L190 63.6327L198 61.102L202 56.0408Z" stroke="url(#paint4_linear_1_2)" style="mix-blend-mode:color-dodge"/>
<path d="M313 330C310 349.286 219 310.714 217 348M311 339C304 355.714 220 324.857 222 348M265 336.429C254 336.429 228 331.286 223 340.286" stroke="#FEF9E1" stroke-opacity="0.5" stroke-width="0.3"/>
<path d="M126 339.6C126 339.6 134.75 341.2 140 338" stroke="#FEF9E1" stroke-opacity="0.5" stroke-width="0.3"/>
<path d="M297 341.6C297 341.6 286.375 343.2 280 340" stroke="#FEF9E1" stroke-opacity="0.5" stroke-width="0.3"/>
<path d="M148.644 338.609C148.644 338.609 151.658 338.321 153.712 337.655" stroke="#FEF9E1" stroke-opacity="0.5" stroke-width="0.3"/>
<path d="M299.386 339.307C299.386 339.307 302.4 339.019 304.454 338.353" stroke="#FEF9E1" stroke-opacity="0.5" stroke-width="0.3"/>
<path d="M118 340C118 342 120.4 342 122 342" stroke="#FEF9E1" stroke-opacity="0.5" stroke-width="0.3"/>
<path d="M317.182 322C317.182 322 314.028 354.614 334 346.787" stroke="black" stroke-opacity="0.3" stroke-width="0.3"/>
<path d="M109.829 322C109.829 322 112.797 354.614 94 346.787" stroke="black" stroke-opacity="0.3" stroke-width="0.3"/>
<path d="M211.295 348C211.295 348 208.361 305 221 305" stroke="url(#paint5_linear_1_2)" stroke-opacity="0.1"/>
<path d="M209.78 348C209.78 348 212.34 305 200 305" stroke="url(#paint6_linear_1_2)" stroke-opacity="0.1" style="mix-blend-mode:screen"/>
<path d="M210 307L211 348" stroke="#F0C803" stroke-opacity="0.2"/>
</g>
<defs>
<linearGradient id="paint0_linear_1_2" x1="219.003" y1="110" x2="219.003" y2="352.933" gradientUnits="userSpaceOnUse">
<stop stop-color="#F0C803"/>
<stop offset="0.38" stop-color="#E3FF0B"/>
<stop offset="0.461" stop-color="#B49A19"/>
<stop offset="1" stop-color="#FBFF07"/>
</linearGradient>
<linearGradient id="paint1_linear_1_2" x1="152.252" y1="93.4946" x2="154.847" y2="125.637" gradientUnits="userSpaceOnUse">
<stop stop-color="#F0C803"/>
<stop offset="0.38" stop-color="#E3FF0B"/>
<stop offset="0.49" stop-color="#B49A19"/>
<stop offset="1" stop-color="#FBFF07"/>
</linearGradient>
<linearGradient id="paint2_linear_1_2" x1="266.124" y1="93.8806" x2="252.38" y2="121.871" gradientUnits="userSpaceOnUse">
<stop stop-color="#F0C803"/>
<stop offset="0.38" stop-color="#E3FF0B"/>
<stop offset="0.49" stop-color="#B49A19"/>
<stop offset="1" stop-color="#FBFF07"/>
</linearGradient>
<linearGradient id="paint3_linear_1_2" x1="266.124" y1="93.8806" x2="252.38" y2="121.871" gradientUnits="userSpaceOnUse">
<stop stop-color="#F0C803"/>
<stop offset="0.38" stop-color="#E3FF0B"/>
<stop offset="0.49" stop-color="#B49A19"/>
<stop offset="1" stop-color="#FBFF07"/>
</linearGradient>
<linearGradient id="paint4_linear_1_2" x1="211.5" y1="37.0612" x2="211.5" y2="123.102" gradientUnits="userSpaceOnUse">
<stop stop-color="#F0C803" stop-opacity="0.5"/>
<stop offset="0.385" stop-color="#E3FF0B" stop-opacity="0.5"/>
<stop offset="0.49" stop-color="#B49A19"/>
<stop offset="1" stop-color="#FBFF07"/>
</linearGradient>
<linearGradient id="paint5_linear_1_2" x1="216.014" y1="303.771" x2="216.014" y2="348" gradientUnits="userSpaceOnUse">
<stop stop-color="#F0C803"/>
<stop offset="0.365" stop-color="#E3FF0B"/>
<stop offset="0.46" stop-color="#B49A19"/>
<stop offset="1" stop-color="#8A7302"/>
</linearGradient>
<linearGradient id="paint6_linear_1_2" x1="203.912" y1="303.771" x2="203.912" y2="348" gradientUnits="userSpaceOnUse">
<stop stop-color="#F0C803"/>
<stop offset="0.365" stop-color="#E3FF0B"/>
<stop offset="0.46" stop-color="#B49A19"/>
<stop offset="0.664271" stop-color="#A48B10"/>
<stop offset="1" stop-color="#8A7302"/>
</linearGradient>
<clipPath id="clip0_1_2">
<rect width="432" height="432" fill="white"/>
</clipPath>
</defs>
</svg>
